<svg id="Layer_1" data-name="Layer 1" xmlns="http://www.w3.org/2000/svg" viewBox="0 0 96.37 18.97"><defs><style>.cls-1{fill:#000000;}</style></defs><title>Artboard 7</title><path class="cls-1" d="M88.89,9.13a3.84,3.84,0,0,0,.65,2.47,2.05,2.05,0,0,0,1.62.79,2.25,2.25,0,0,0,1.74-.81,3.51,3.51,0,0,0,.71-2.38,3.73,3.73,0,0,0-.68-2.45A2.17,2.17,0,0,0,91.21,6a2.08,2.08,0,0,0-1.67.78,3.74,3.74,0,0,0-.65,2.4m-2.51,6.23,3.21.39a1.1,1.1,0,0,0,.37.77,2.11,2.11,0,0,0,1.26.3,3.29,3.29,0,0,0,1.65-.33,1.45,1.45,0,0,0,.56-.71,4.52,4.52,0,0,0,.13-1.29V12.94a3.82,3.82,0,0,1-3.18,1.72A3.92,3.92,0,0,1,87,12.85a6.19,6.19,0,0,1-1-3.56,5.89,5.89,0,0,1,1.28-4.08,4.17,4.17,0,0,1,3.2-1.41,3.9,3.9,0,0,1,3.25,1.73V4h2.63v9.53a9.74,9.74,0,0,1-.31,2.81,3.6,3.6,0,0,1-.87,1.46,3.91,3.91,0,0,1-1.5.83,8.17,8.17,0,0,1-2.36.3A6.09,6.09,0,0,1,87.5,18a2.92,2.92,0,0,1-1.13-2.34c0-.1,0-.21,0-.34m-3.91-.7H79.66V4h2.61V5.55a4.5,4.5,0,0,1,1.21-1.41,2.16,2.16,0,0,1,1.21-.34,3.59,3.59,0,0,1,1.85.53l-.87,2.45a2.42,2.42,0,0,0-1.32-.46,1.56,1.56,0,0,0-1,.33,2.14,2.14,0,0,0-.64,1.17,16.35,16.35,0,0,0-.24,3.56ZM75.81,8.44a2.77,2.77,0,0,0-.62-1.86A2,2,0,0,0,73.72,6a1.93,1.93,0,0,0-1.51.67,2.56,2.56,0,0,0-.59,1.82Zm-.16,2.84,2.81.47a4.62,4.62,0,0,1-1.71,2.34,5,5,0,0,1-2.92.81,4.72,4.72,0,0,1-4.09-1.81,6.1,6.1,0,0,1-1.06-3.66,5.84,5.84,0,0,1,1.39-4.14A4.54,4.54,0,0,1,73.55,3.8a4.72,4.72,0,0,1,3.74,1.56,7,7,0,0,1,1.32,4.8h-7a2.79,2.79,0,0,0,.67,1.94,2.13,2.13,0,0,0,1.62.7A1.7,1.7,0,0,0,75,12.44a2.22,2.22,0,0,0,.68-1.16M60.78,9.12a4.49,4.49,0,0,0,.52,2.44,2.22,2.22,0,0,0,1.94,1.12,2,2,0,0,0,1.58-.8,3.87,3.87,0,0,0,.66-2.5,4.18,4.18,0,0,0-.66-2.63A2.1,2.1,0,0,0,63.13,6a2.13,2.13,0,0,0-1.68.78,3.61,3.61,0,0,0-.67,2.39M58,14.66V0H60.8V5.28A4,4,0,0,1,63.88,3.8a4.17,4.17,0,0,1,3.21,1.4,5.81,5.81,0,0,1,1.27,4,6.11,6.11,0,0,1-1.3,4.19,4,4,0,0,1-3.14,1.47,3.85,3.85,0,0,1-1.8-.46A4.29,4.29,0,0,1,60.6,13.1v1.56ZM40.81,4H43.4V5.49A4.13,4.13,0,0,1,46.71,3.8a3.55,3.55,0,0,1,1.76.42,3.3,3.3,0,0,1,1.24,1.27,4.76,4.76,0,0,1,1.5-1.27,3.71,3.71,0,0,1,1.73-.42,3.82,3.82,0,0,1,2,.48,2.85,2.85,0,0,1,1.21,1.39,5.91,5.91,0,0,1,.29,2.2v6.79H53.61V8.59a4.41,4.41,0,0,0-.29-2,1.33,1.33,0,0,0-1.2-.6A1.93,1.93,0,0,0,51,6.31a2.07,2.07,0,0,0-.75,1.05A7.78,7.78,0,0,0,50,9.56v5.1H47.22V8.84a8.09,8.09,0,0,0-.15-2,1.28,1.28,0,0,0-.46-.67A1.44,1.44,0,0,0,45.75,6a2,2,0,0,0-1.16.35,1.9,1.9,0,0,0-.75,1,7.47,7.47,0,0,0-.23,2.19v5.16h-2.8Zm-9,5.31a3.52,3.52,0,0,0,.75,2.42,2.39,2.39,0,0,0,1.85.84,2.35,2.35,0,0,0,1.84-.84A3.55,3.55,0,0,0,37,9.33a3.49,3.49,0,0,0-.75-2.4,2.35,2.35,0,0,0-1.84-.84,2.39,2.39,0,0,0-1.85.84,3.52,3.52,0,0,0-.75,2.42M29,9.2a5.74,5.74,0,0,1,.69-2.71,4.76,4.76,0,0,1,1.95-2,5.84,5.84,0,0,1,2.83-.69,5.33,5.33,0,0,1,4,1.56,5.42,5.42,0,0,1,1.54,4,5.45,5.45,0,0,1-1.56,4,5.23,5.23,0,0,1-3.91,1.59,6.19,6.19,0,0,1-2.79-.66,4.54,4.54,0,0,1-2-1.94A6.43,6.43,0,0,1,29,9.2m-8.52.15a3.52,3.52,0,0,0,.75,2.42,2.46,2.46,0,0,0,3.7,0,3.54,3.54,0,0,0,.74-2.44,3.48,3.48,0,0,0-.74-2.4,2.46,2.46,0,0,0-3.7,0,3.52,3.52,0,0,0-.75,2.42M17.57,9.2a5.86,5.86,0,0,1,.69-2.71,4.79,4.79,0,0,1,2-2A5.77,5.77,0,0,1,23,3.8,5.3,5.3,0,0,1,27,5.36a5.42,5.42,0,0,1,1.54,4,5.48,5.48,0,0,1-1.55,4,5.25,5.25,0,0,1-3.92,1.59,6.15,6.15,0,0,1-2.78-.66,4.57,4.57,0,0,1-2-1.94,6.54,6.54,0,0,1-.69-3.1M13.65,0h2.81V14.66H13.65ZM3,8.27v3.92H5.7a13.39,13.39,0,0,0,2-.09,1.86,1.86,0,0,0,1.08-.59,1.82,1.82,0,0,0,.41-1.24A1.94,1.94,0,0,0,8.9,9.15,1.76,1.76,0,0,0,8,8.48a10,10,0,0,0-2.62-.21ZM3,2.44V5.83H4.9c1.15,0,1.87,0,2.15,0a1.93,1.93,0,0,0,1.19-.52,1.57,1.57,0,0,0,.44-1.15A1.64,1.64,0,0,0,8.31,3a1.76,1.76,0,0,0-1.12-.51c-.29,0-1.14-.05-2.53-.05ZM0,0H5.86a16.44,16.44,0,0,1,2.6.15A3.69,3.69,0,0,1,11.11,2a3.28,3.28,0,0,1,.45,1.71A3.39,3.39,0,0,1,11,5.58,3.57,3.57,0,0,1,9.5,6.87,3.85,3.85,0,0,1,11.56,8.2a3.51,3.51,0,0,1,.72,2.21,4.36,4.36,0,0,1-.47,1.94,3.9,3.9,0,0,1-1.26,1.51,4.22,4.22,0,0,1-2,.7c-.49,0-1.68.08-3.57.1H0Z"/></svg>