<svg id="Layer_1" data-name="Layer 1" xmlns="http://www.w3.org/2000/svg" viewBox="0 0 102.27 26.21"><defs><style>.cls-1{fill:#000000;}</style></defs><title>Artboard 6</title><path class="cls-1" d="M69.7,23.73c-1-2.58-2-5.19-3-7.78-.92-2.4-1.86-4.78-2.78-7.18S62.09,4,61.17,1.58l-.4-1L62.08,0l9.06,23.51c0-.22.48,1.3.48,1.3a7.36,7.36,0,0,1,.34.88l-1.28.52c-.16-.37-.3-.68-.49-1.09"/><path class="cls-1" d="M45.59,15.65a8.19,8.19,0,0,0,1.1-.27,2.47,2.47,0,0,0,1.72-2.08,2.39,2.39,0,0,0-1.16-2.65,3.76,3.76,0,0,0-3.33-.28,2.69,2.69,0,0,0-1.29,4c.66,1,1.69,1.21,3,1.29m2.85.54a14.05,14.05,0,0,1-2,1,5.67,5.67,0,0,1-5.8-1.41c-1.64-2-1.24-6.19,2.13-7.17a6.24,6.24,0,0,1,4.63.28,8.65,8.65,0,0,1,1,.72,5,5,0,0,0,0-.64c0-.34.12-.49.47-.48s1,0,1.45,0,.49.11.48.46c0,.53,0,1.07,0,1.6,0,2.21,0,4.42,0,6.62a3.64,3.64,0,0,1-3,3.8,10,10,0,0,1-6-.27,2.61,2.61,0,0,1-1.64-1.83c-.1-.38,0-.62.45-.57a4.28,4.28,0,0,0,.8,0c.6,0,1.13-.05,1.47.66.24.52.87.57,1.4.64a5.05,5.05,0,0,0,2.85-.3,2,2,0,0,0,1.2-1.82c0-.42,0-.85,0-1.28"/><path class="cls-1" d="M8.46,13.08a2.77,2.77,0,0,0-3-3,2.81,2.81,0,0,0-3,3,2.83,2.83,0,0,0,3,3,2.79,2.79,0,0,0,3-3m-.11,3.39a5.07,5.07,0,0,1-4.74,1.27,4.1,4.1,0,0,1-2.53-1.51,5.13,5.13,0,0,1,0-6.31A4.64,4.64,0,0,1,4.62,8.31,4.47,4.47,0,0,1,8.34,9.68c0-.26,0-.38.05-.5,0-1.16,0-2.31,0-3.46,0-.39.11-.55.52-.53a8.69,8.69,0,0,0,1.25,0c.45,0,.61.15.61.61,0,2.89,0,5.78,0,8.67,0,.85,0,1.7,0,2.56,0,.39-.14.54-.53.51a10.43,10.43,0,0,0-1.25,0c-.43,0-.63-.1-.59-.55a2.85,2.85,0,0,0,0-.52"/><path class="cls-1" d="M17.85,12.14H20.2c.56,0,.64-.11.42-.61a3.19,3.19,0,0,0-3.72-1.6A2.88,2.88,0,0,0,15,11.5c-.23.5-.14.63.4.64h2.45m5.09,2.8a4.33,4.33,0,0,1-1.85,2.14,7.06,7.06,0,0,1-5.1.57,4.25,4.25,0,0,1-3.09-2.18,4.81,4.81,0,0,1,3.28-7.09,6.53,6.53,0,0,1,5,.73,4.66,4.66,0,0,1,2.07,4.16c0,.39-.27.39-.56.39H15.25c-.35,0-.49.1-.38.49a2.6,2.6,0,0,0,2.34,2,3.8,3.8,0,0,0,2.43-.37,1.22,1.22,0,0,0,.36-.27c.83-1.08,1.95-.36,2.94-.52"/><path class="cls-1" d="M29.46,17.84a6.92,6.92,0,0,1-3.63-.73,2.79,2.79,0,0,1-1.4-2c-.06-.34.08-.46.4-.45.6,0,1.2,0,1.8,0a.42.42,0,0,1,.35.24A1.48,1.48,0,0,0,28.05,16a4.45,4.45,0,0,0,3.19-.14.88.88,0,0,0,.59-.85.72.72,0,0,0-.61-.7c-.55-.16-1.13-.28-1.7-.39-1.09-.22-2.2-.37-3.28-.64a2,2,0,0,1-1.57-2.08A2.4,2.4,0,0,1,26,8.89a7.31,7.31,0,0,1,4.44-.61,4.81,4.81,0,0,1,2.48.84A2.63,2.63,0,0,1,34,10.86c0,.3,0,.44-.36.44-.56,0-1.13,0-1.7,0a.53.53,0,0,1-.39-.26,1.83,1.83,0,0,0-1.19-1,3.87,3.87,0,0,0-2.45,0c-.6.21-.93.57-.87,1,.09.56.58.66,1,.74,1.08.2,2.18.32,3.26.53a10.07,10.07,0,0,1,1.87.56,1.94,1.94,0,0,1,1.22,1.9,2.53,2.53,0,0,1-1.27,2.35,6.2,6.2,0,0,1-3.32.76h-.36"/><path class="cls-1" d="M55.16,9.72a9.7,9.7,0,0,1,1-.74A5.23,5.23,0,0,1,61,8.77a2.51,2.51,0,0,1,1.5,2.47c0,1.94,0,3.87,0,5.81,0,.37-.13.51-.5.49s-.9,0-1.35,0-.52-.14-.52-.52c0-1.59,0-3.17,0-4.76a1.92,1.92,0,0,0-2.08-2.15A2.74,2.74,0,0,0,55.3,11.7a3.56,3.56,0,0,0-.17,1.13c0,1.37,0,2.74,0,4.11,0,.44-.1.65-.59.6a8.06,8.06,0,0,0-1.3,0c-.4,0-.52-.13-.52-.51,0-1.29,0-2.58,0-3.86s0-2.74,0-4.11c0-.41.13-.58.55-.55a12.16,12.16,0,0,0,1.35,0c.37,0,.52.14.5.5,0,.2,0,.41,0,.7"/><path class="cls-1" d="M78.42,10.09a4.33,4.33,0,0,1,4.86-1.48,2.72,2.72,0,0,1,2.14,2.68c0,1.93,0,3.85,0,5.77,0,.6-.38.45-.71.48s-.6,0-.59-.5c0-1.69,0-3.38,0-5.07a2.09,2.09,0,0,0-1.21-2.22c-1.22-.49-3.25-.37-4,1.07a3.34,3.34,0,0,0-.37,1.38c0,1.6,0,3.21,0,4.81,0,.6-.32.51-.7.54s-.59-.11-.58-.56c0-1.64,0-3.28,0-4.91s-.65-2.47-2.37-2.56a2.74,2.74,0,0,0-3,1.75,5.83,5.83,0,0,0-.25,1.87c0,1.29,0,2.58,0,3.86,0,.59-.32.52-.71.55s-.58-.1-.58-.56c0-2.59,0-5.18,0-7.77,0-.51.21-.57.63-.57s.72.06.65.59a7.09,7.09,0,0,0,0,.8c2.32-2.11,4.57-2.42,6.8.05"/><path class="cls-1" d="M101.92,8.81l-2,1.53c-.6.47-1.2.95-1.82,1.4-.32.23-.35.39-.08.71,1.37,1.57,2.72,3.17,4.06,4.76.06.07.09.14.14.21a1.73,1.73,0,0,1-2.06-.45c-1-1.21-2-2.42-3-3.65-.25-.31-.4-.37-.8-.13a2.6,2.6,0,0,0-1.52,3,2.53,2.53,0,0,1,0,.55c0,.78-.31,1-1.07.77-.12,0-.24-.3-.25-.45,0-.79,0-1.58,0-2.36q0-4.36,0-8.72c0-.22.06-.59.16-.61a2.74,2.74,0,0,1,1,0c.07,0,.12.32.12.49q0,3.21,0,6.42a5.63,5.63,0,0,0,.05.58l.79-.59c1.33-1.06,2.68-2.09,4-3.2.7-.61,1.45-.33,2.19-.39l.06.13"/><path class="cls-1" d="M35.91,13c0-1.32,0-2.64,0-4,0-.39.11-.55.52-.52a13.08,13.08,0,0,0,1.4,0c.33,0,.48.11.48.46v8.16c0,.32-.13.41-.42.4-.52,0-1,0-1.55,0-.35,0-.43-.13-.43-.44,0-1.37,0-2.74,0-4.1"/><path class="cls-1" d="M91.68,11.46c0,1.84,0,3.67,0,5.51,0,.5-.2.59-.62.58s-.73,0-.72-.58q0-5.56,0-11.13c0-.58.31-.54.69-.55s.66,0,.65.56c0,1.87,0,3.74,0,5.61Z"/><path class="cls-1" d="M88.59,13.1c0,1.29,0,2.57,0,3.86,0,.47-.16.62-.61.58s-.75.07-.74-.56c0-2.57,0-5.14,0-7.71,0-.19.09-.53.18-.54a3.24,3.24,0,0,1,1,0c.06,0,.1.29.1.45,0,1.3,0,2.6,0,3.9"/><path class="cls-1" d="M37.09,7.12c-1.18,0-1.18,0-1.18-1.18,0-.74,0-.74.72-.74.38,0,.76,0,1.14,0s.58.16.53.56a.75.75,0,0,0,0,.15c0,1.22,0,1.22-1.21,1.22"/><path class="cls-1" d="M87.27,6.22V6.07c0-.72.42-1,1.1-.74a.48.48,0,0,1,.21.34,4.83,4.83,0,0,1,0,.85c0,.21,0,.6-.13.61a3.29,3.29,0,0,1-1,0s-.13-.18-.14-.28,0-.43,0-.65"/></svg>