<svg id="Layer_1" data-name="Layer 1" xmlns="http://www.w3.org/2000/svg" viewBox="0 0 45.74 22.33"><defs><style>.cls-1{fill:#000000;}</style></defs><title>Artboard 5</title><path class="cls-1" d="M31.17,11.48H38l.32.42a4.4,4.4,0,0,0,.06-.73,5.11,5.11,0,1,0-3.73,4.89ZM33.31,0a11.16,11.16,0,0,1,9.23,17.43l3.2,4.21H38.9l-.44-.58a11.06,11.06,0,0,1-5.15,1.27,11.19,11.19,0,0,1-11.07-9.72,11.18,11.18,0,1,1-.48-5H14.83A5.09,5.09,0,1,0,15,14.49H11.85v-5H22.2c0,.08,0,.16,0,.25A11.19,11.19,0,0,1,33.31,0"/></svg>