<svg xmlns="http://www.w3.org/2000/svg" width="28.724" height="31.513" viewBox="0 0 28.724 29.513"><path d="M20.29,29.513H8.434A8.437,8.437,0,0,1,0,21.085V8.434A8.438,8.438,0,0,1,8.434,0H20.29a8.442,8.442,0,0,1,8.434,8.434V21.085A8.445,8.445,0,0,1,20.29,29.513ZM8.434,2.164a6.275,6.275,0,0,0-6.27,6.27V21.085a6.275,6.275,0,0,0,6.27,6.27H20.29a6.275,6.275,0,0,0,6.27-6.27V8.434a6.275,6.275,0,0,0-6.27-6.27H8.434Z"/><g transform="translate(6.517 6.871)"><path d="M113.542,127.132a7.854,7.854,0,0,1-7.842-7.842,7.973,7.973,0,0,1,2.4-5.69,7.481,7.481,0,0,1,5.475-2.152,8.114,8.114,0,0,1,5.857,2.38,7.571,7.571,0,0,1,1.942,5.487,8.008,8.008,0,0,1-2.324,5.512A7.677,7.677,0,0,1,113.542,127.132Zm-.179-13.046a4.894,4.894,0,0,0-3.416,1.406,5.319,5.319,0,0,0-1.6,3.792,5.2,5.2,0,1,0,10.394-.031h0a5.031,5.031,0,0,0-1.227-3.625,5.577,5.577,0,0,0-4.007-1.547A1.092,1.092,0,0,1,113.363,114.086Z" transform="translate(-105.7 -111.444)"/></g><circle cx="1.831" cy="1.831" r="1.831" transform="translate(20.561 4.821)"/></svg>