<svg xmlns="http://www.w3.org/2000/svg" width="110.175" height="15.818" viewBox="0 0 110.175 15.818"><g transform="translate(0 -1.618)"><path d="M100.289,10.355a7.833,7.833,0,0,0,7.886,7.862,11.125,11.125,0,0,0,5.445-1.424.438.438,0,0,0,.175-.356v-5.6a.414.414,0,0,0-.4-.42h-4.214a.4.4,0,0,0-.42.42V12.59a.4.4,0,0,0,.42.4h1.751v1.868a6.876,6.876,0,0,1-2.615.549,5.066,5.066,0,0,1,0-10.127,4.979,4.979,0,0,1,3.315,1.272.379.379,0,0,0,.584,0L113.574,5.1a.432.432,0,0,0,0-.619,8.317,8.317,0,0,0-5.358-2.043,7.891,7.891,0,0,0-7.926,7.915M94.452,17.6a.432.432,0,0,0,.414.414H96.91a.432.432,0,0,0,.42-.414V3.088a.432.432,0,0,0-.414-.42H94.9a.432.432,0,0,0-.414.42Zm-13.2,0a.414.414,0,0,0,.42.414h2.02A.426.426,0,0,0,84.1,17.6V12.071h5.428a.432.432,0,0,0,.414-.42v-1.8a.432.432,0,0,0-.414-.42H84.1V5.306h6.5a.42.42,0,0,0,.42-.42v-1.8a.42.42,0,0,0-.42-.42H81.681a.42.42,0,0,0-.42.42Zm-16.927,0a.432.432,0,0,0,.42.414h2a.42.42,0,0,0,.42-.414V8.183H67.2l9.006,9.923a.49.49,0,0,0,.374.152h.3a.414.414,0,0,0,.42-.4V3.088a.432.432,0,0,0-.42-.42H74.87a.42.42,0,0,0-.42.42v9.07H74.4L65.432,2.6a.484.484,0,0,0-.374-.158h-.327a.42.42,0,0,0-.42.4ZM48.814,10.355a5.043,5.043,0,1,1,5.031,5.031,5.043,5.043,0,0,1-5.031-5.031m-2.854,0a7.874,7.874,0,1,0,2.3-5.594,7.9,7.9,0,0,0-2.3,5.594m-10.8-.706V5.306H38.74a2.183,2.183,0,0,1,2.171,2.13A2.235,2.235,0,0,1,38.74,9.672Zm-2.878,7.979a.414.414,0,0,0,.414.414h2.02a.432.432,0,0,0,.42-.414v-5.6h2.434l2.918,5.837a.374.374,0,0,0,.35.2h2.306a.414.414,0,0,0,.385-.654l-3.006-5.58A4.85,4.85,0,0,0,43.777,7.39a4.757,4.757,0,0,0-4.8-4.722H32.7a.414.414,0,0,0-.414.42ZM20.529,12.794l2.154-4.833h.064l2.195,4.833Zm-4.7,5.253h1.909a.665.665,0,0,0,.636-.438l1.08-2.376h6.566L27.1,17.61a.636.636,0,0,0,.636.438h1.914a.391.391,0,0,0,.374-.584L23.255,2.691a.379.379,0,0,0-.374-.245H22.66a.391.391,0,0,0-.374.245L15.457,17.47a.385.385,0,0,0,.374.584m-9.38-2.6V11.522h2.7a1.879,1.879,0,0,1,1.938,1.914,1.926,1.926,0,0,1-1.938,2Zm0-6.327V5.282H8.844a1.751,1.751,0,0,1,1.85,1.868,1.85,1.85,0,0,1-1.85,1.973Zm5.055,1.033A3.87,3.87,0,0,0,13.7,6.73c0-2.306-2.02-4.086-4.634-4.086H4.034a.414.414,0,0,0-.414.42V17.627a.414.414,0,0,0,.414.414H9.352c2.679,0,4.792-1.78,4.792-4.238a3.607,3.607,0,0,0-2.638-3.537Z" transform="translate(-3.62 -0.822)"/></g></svg>