<svg id="Layer_1" data-name="Layer 1" xmlns="http://www.w3.org/2000/svg" viewBox="0 0 99.94 21.76"><defs><style>.cls-1{fill:#000000;}</style></defs><title>Artboard 4</title><path class="cls-1" d="M68.87.91H69L69.1.38H63.81L63.66.9h.14c1,0,1.6.43,1.6,1a1.93,1.93,0,0,1-.34,1l-6.9,10.8C57.76,12,55.52,2.44,55.52,2.44a2.27,2.27,0,0,1-.07-.53c0-.67.47-.95,1.67-1h.08l.15-.53H51.93L51.78.9h.14c1.07,0,1.67.31,2,1.66C54.52,5,56.79,14.63,57,15.47c-2.47,3.61-4.56,5.7-7.88,5.7a3.92,3.92,0,1,1-.3-7.82c1.3,0,2,.64,2,1.25a.67.67,0,0,1-.31.58.75.75,0,0,0-.41.64.58.58,0,0,0,.61.58c.55,0,.85-.63.85-1.23,0-1.45-1-2.36-2.74-2.36a4.48,4.48,0,1,0,.3,9c4.36,0,6.64-3.43,9.06-7.06C58.24,14.59,65.08,4,65.8,2.87A3.94,3.94,0,0,1,68.87.91Z"/><path class="cls-1" d="M69.4,5c-3,0-6,3.33-6,6.59,0,2.54,1.69,3.87,3.36,3.87a5.61,5.61,0,0,0,4.07-2,7.27,7.27,0,0,0,1.85-4.77C72.67,6.44,71.35,5,69.4,5Zm1.88,3.17c0,2.37-1.56,6.78-4.55,6.78-1.24,0-2-1.11-2-3,0-2.76,2.28-6.46,4.61-6.46C71,5.47,71.28,6.92,71.28,8.13Z"/><path class="cls-1" d="M98.33,15.36a1.11,1.11,0,0,0-1.2.95.47.47,0,0,0,.45.47.56.56,0,0,0,.52-.33.59.59,0,0,1,.52-.31.81.81,0,0,1,.84.91,2.33,2.33,0,0,1-2.57,2c-3.65,0-6.83-3.24-9.7-9.9l3.34-2.55a3.77,3.77,0,0,1,2-.93h.08l.14-.46H89.26l-.14.45h.15c.46,0,.77.19.77.4s-.18.43-.51.68L85.1,10.07,86,7l0-.07c.28-.8.44-1.24,1.59-1.3h.08l.14-.46h-4l-.14.46h.15c.48,0,.8.12.92.29s.1.48-.06,1.05l-2,6.51c-.23.76-.71,1.22-1.27,1.22s-.85-.32-1.26-1.19l-1.62-3.3c1.52-.32,3.22-1.29,3.22-3a1.79,1.79,0,0,0-.52-1.35,3.37,3.37,0,0,0-2.45-.74h0l-1.75,0c-.85,0-1.74,0-2.4,0h-.09l-.14.45h.15c.53,0,.8.12.93.3s.11.52,0,1l-2,6.51A1.6,1.6,0,0,1,72,14.71h-.07l-.17.48h4.18l.14-.47h-.15c-.76,0-1.18-.16-1.18-.69a1.59,1.59,0,0,1,.09-.48c.08-.3.8-2.67.94-3.15H77.4c.78,1.55,1.74,3.48,2.31,4.73l0,.07H85.2l.13-.48h-.15c-.84,0-1.2-.23-1.2-.7a1.54,1.54,0,0,1,.09-.47s.7-2.35.8-2.67l.81-.63.4-.32c1.82,3.67,4.85,9.64,10.74,9.64,1.75,0,3.12-1.1,3.12-2.51A1.61,1.61,0,0,0,98.33,15.36ZM80.58,7.09c0,1.28-.61,2.82-3.51,2.82H75.91l1.31-4.28c.27,0,.85,0,1.35,0C79.9,5.59,80.58,6.09,80.58,7.09Z"/><path class="cls-1" d="M28.07,5.63h.15c.5,0,.82.14.93.3s.11.45,0,.89l-2,6.73a1.56,1.56,0,0,1-1.55,1.15h-.07l-.17.47H34l1.55-3.06L35.18,12l-.06.08c-1.19,1.89-2.91,2.66-6,2.66h-1.1c.22-.73,1.19-4,1.35-4.52h1.32a1.33,1.33,0,0,1,1.07.34c.22.27.25.74.09,1.49l0,.14h.44L33.54,8h-.45l0,.07a2.36,2.36,0,0,1-2.31,1.63h-1.2l1.24-4.09H32a2.68,2.68,0,0,1,2.95,2l0,.1.39-.06-.34-2.53H28.21Z"/><path class="cls-1" d="M34.89,17.44c-.5,0-.81.23-.81.59a.55.55,0,0,0,.57.52.81.81,0,0,0,.34-.09.63.63,0,0,1,.2-.06c.31,0,.53.35.53.82,0,1.16-1.11,2-2.64,2-3.23,0-6.4-2.69-9.7-8.22,1.36-4.38,4.07-11.66,7.05-11.66a2.75,2.75,0,0,1,1.18.26,2,2,0,0,0,.79.19.83.83,0,0,0,1-.77c0-.62-.59-1-1.46-1C27.41,0,24.68,7,23,12.35A44,44,0,0,1,18.38.47l0-.09H13.12c-1.38,0-3.68.29-3.68,2.29A1.66,1.66,0,0,0,11.1,4.33a1.31,1.31,0,0,0,1.44-1.1A.6.6,0,0,0,12,2.58a.59.59,0,0,0-.57.65.4.4,0,0,1-.42.43,1,1,0,0,1-1-1C10,1.49,11.06.91,13.12.91H15.3a1.56,1.56,0,0,1,1.29.46,1.53,1.53,0,0,1,.13,1.32c-2.18,7.68-6.53,15.88-12.19,15.88C2,18.57.62,17.09.62,15.63c0-1,.69-1.81,1.31-1.81.37,0,.51.24.66.52s.33.6.78.6A.66.66,0,0,0,4,14.27c0-.67-.75-1.18-1.73-1.18A2.46,2.46,0,0,0,0,15.63c0,2.06,1.9,3.55,4.53,3.55,3.11,0,6-2.17,8.6-6.46A41.49,41.49,0,0,0,17.24,3c2.35,8,9,18.77,15.79,18.77,1.9,0,3.23-1.07,3.23-2.59A1.57,1.57,0,0,0,34.89,17.44Z"/><path class="cls-1" d="M49.75,5.64h.08L50,5.18H46.51l-.14.45h.15c.91.06,1,.59,1,.75a1.38,1.38,0,0,1-.18.63L43.94,13.5l-.5-7a.75.75,0,0,1,.14-.61c.15-.17.44-.24.93-.25h.08l.14-.46H41.1L41,5.62l.14,0c.66.05,1,.25,1,.59a1.23,1.23,0,0,1-.16.53l-3.29,6.69-.51-6.93a.87.87,0,0,1,.15-.64c.16-.18.46-.22.9-.24h.08l.14-.46H35.7l-.14.45h.15c.92.05,1.17.29,1.24,1.13l.68,8.48v.11h.6l4-8.18.65,8.07v.11h.58l4.3-8.21A2.33,2.33,0,0,1,49.75,5.64Z"/></svg>