<svg xmlns="http://www.w3.org/2000/svg" width="31.49" height="28.591" viewBox="0 0 31.49 25.591"><path d="M264.05,396.9a12.9,12.9,0,0,1-3.711,1.017,6.476,6.476,0,0,0,2.841-3.574,12.941,12.941,0,0,1-4.1,1.568,6.467,6.467,0,0,0-11.009,5.893,18.341,18.341,0,0,1-13.316-6.75,6.468,6.468,0,0,0,2,8.625,6.432,6.432,0,0,1-2.926-.808c0,.027,0,.054,0,.082a6.465,6.465,0,0,0,5.183,6.335,6.475,6.475,0,0,1-2.918.111,6.468,6.468,0,0,0,6.035,4.487,12.963,12.963,0,0,1-8.024,2.766,13.2,13.2,0,0,1-1.541-.09,18.287,18.287,0,0,0,9.9,2.9c11.883,0,18.382-9.844,18.382-18.382q0-.42-.019-.836A13.12,13.12,0,0,0,264.05,396.9Z" transform="translate(-232.56 -393.874)"/></svg>